<svg width="776" height="400" viewBox="0 0 776 400" fill="none" xmlns="http://www.w3.org/2000/svg">
<g clip-path="url(#clip0_2550_66133)">
<path d="M3.17688 24H29.8169L47.0969 154.32H47.5769L64.8569 24H89.0969L63.6569 192H28.6169L3.17688 24ZM163.469 194.4C150.509 194.4 140.589 190.72 133.709 183.36C126.829 176 123.389 165.6 123.389 152.16V63.84C123.389 50.4 126.829 40 133.709 32.64C140.589 25.28 150.509 21.6 163.469 21.6C176.429 21.6 186.349 25.28 193.229 32.64C200.109 40 203.549 50.4 203.549 63.84V152.16C203.549 165.6 200.109 176 193.229 183.36C186.349 190.72 176.429 194.4 163.469 194.4ZM163.469 170.4C172.589 170.4 177.149 164.88 177.149 153.84V62.16C177.149 51.12 172.589 45.6 163.469 45.6C154.349 45.6 149.789 51.12 149.789 62.16V153.84C149.789 164.88 154.349 170.4 163.469 170.4ZM245.403 24H284.523C298.123 24 308.043 27.2 314.283 33.6C320.523 39.84 323.643 49.52 323.643 62.64V72.96C323.643 90.4 317.883 101.44 306.363 106.08V106.56C312.763 108.48 317.243 112.4 319.803 118.32C322.523 124.24 323.883 132.16 323.883 142.08V171.6C323.883 176.4 324.043 180.32 324.363 183.36C324.683 186.24 325.483 189.12 326.763 192H299.883C298.923 189.28 298.283 186.72 297.963 184.32C297.643 181.92 297.483 177.6 297.483 171.36V140.64C297.483 132.96 296.203 127.6 293.643 124.56C291.243 121.52 287.003 120 280.923 120H271.803V192H245.403V24ZM281.403 96C286.683 96 290.603 94.64 293.163 91.92C295.883 89.2 297.242 84.64 297.242 78.24V65.28C297.242 59.2 296.123 54.8 293.883 52.08C291.803 49.36 288.443 48 283.803 48H271.803V96H281.403ZM366.199 24H438.199V48H392.599V92.4H428.839V116.4H392.599V168H438.199V192H366.199V24ZM477.387 24H503.787V168H547.227V192H477.387V24ZM583.887 24H610.287V168H653.727V192H583.887V24ZM727.609 194.4C714.649 194.4 704.729 190.72 697.849 183.36C690.969 176 687.529 165.6 687.529 152.16V63.84C687.529 50.4 690.969 40 697.849 32.64C704.729 25.28 714.649 21.6 727.609 21.6C740.569 21.6 750.489 25.28 757.369 32.64C764.249 40 767.689 50.4 767.689 63.84V152.16C767.689 165.6 764.249 176 757.369 183.36C750.489 190.72 740.569 194.4 727.609 194.4ZM727.609 170.4C736.729 170.4 741.289 164.88 741.289 153.84V62.16C741.289 51.12 736.729 45.6 727.609 45.6C718.489 45.6 713.929 51.12 713.929 62.16V153.84C713.929 164.88 718.489 170.4 727.609 170.4Z" fill="#E3E7EE"/>
<path d="M3.92 378L35.98 280H51.94L84 378H74.62L66.22 351.96H21.7L13.3 378H3.92ZM24.22 343.84H63.7L44.8 285.32H43.12L24.22 343.84ZM160.606 379.96C153.14 379.96 146.606 378.467 141.006 375.48C135.406 372.4 131.066 367.92 127.986 362.04C124.906 356.067 123.366 348.74 123.366 340.06V317.94C123.366 304.873 126.773 294.98 133.586 288.26C140.493 281.447 149.686 278.04 161.166 278.04C172.553 278.04 181.14 281.213 186.926 287.56C192.806 293.907 195.746 302.353 195.746 312.9V313.6H186.786V312.62C186.786 307.487 185.9 302.96 184.126 299.04C182.353 295.027 179.553 291.9 175.726 289.66C171.993 287.327 167.14 286.16 161.166 286.16C152.113 286.16 145.02 288.913 139.886 294.42C134.846 299.927 132.326 307.673 132.326 317.66V340.34C132.326 350.327 134.846 358.073 139.886 363.58C145.02 369.087 152.113 371.84 161.166 371.84C170.033 371.84 176.566 369.273 180.766 364.14C184.966 359.007 187.066 352.1 187.066 343.42V340.62H154.726V332.78H195.746V378H187.626V366.94H185.946C184.826 369.18 183.24 371.327 181.186 373.38C179.133 375.34 176.426 376.927 173.066 378.14C169.8 379.353 165.646 379.96 160.606 379.96ZM246.731 378V280H305.951V288.12H255.691V324.8H302.031V332.92H255.691V369.88H306.511V378H246.731ZM354.165 378V280H371.945L411.985 372.68H413.665V280H422.625V378H404.845L364.805 285.18H363.125V378H354.165ZM509.444 379.96C497.964 379.96 488.77 376.6 481.864 369.88C475.05 363.067 471.644 353.127 471.644 340.06V317.94C471.644 304.873 475.05 294.98 481.864 288.26C488.77 281.447 497.964 278.04 509.444 278.04C520.83 278.04 529.51 281.26 535.484 287.7C541.55 294.047 544.584 302.727 544.584 313.74V314.44H535.624V313.46C535.624 305.433 533.477 298.9 529.184 293.86C524.984 288.727 518.404 286.16 509.444 286.16C500.39 286.16 493.297 288.913 488.164 294.42C483.124 299.927 480.604 307.673 480.604 317.66V340.34C480.604 350.327 483.124 358.073 488.164 363.58C493.297 369.087 500.39 371.84 509.444 371.84C518.404 371.84 524.984 369.32 529.184 364.28C533.477 359.147 535.624 352.567 535.624 344.54V342.44H544.584V344.26C544.584 355.273 541.55 364 535.484 370.44C529.51 376.787 520.83 379.96 509.444 379.96ZM615.984 378V339.22L580.424 280H591.064L619.624 329H621.304L649.864 280H660.504L624.944 339.22V378H615.984Z" fill="#A3B0C7"/>
</g>
<defs>
<clipPath id="clip0_2550_66133">
<rect width="776" height="400" fill="white"/>
</clipPath>
</defs>
</svg>
